<svg id="squirro_logo_normal_color-01" xmlns="http://www.w3.org/2000/svg" xmlns:xlink="http://www.w3.org/1999/xlink" width="129.93" height="45" viewBox="0 0 129.93 45">
  <defs>
    <linearGradient id="linear-gradient" x1="0.307" y1="0.931" x2="0.928" y2="0.023" gradientUnits="objectBoundingBox">
      <stop offset="0.16" stop-color="#d34a20"/>
      <stop offset="0.29" stop-color="#d74e21"/>
      <stop offset="0.43" stop-color="#e15b25"/>
      <stop offset="0.54" stop-color="#ef6b2a"/>
      <stop offset="1" stop-color="#f0942a"/>
    </linearGradient>
    <linearGradient id="linear-gradient-2" x1="0.19" y1="0.879" x2="0.719" y2="0.186" gradientUnits="objectBoundingBox">
      <stop offset="0" stop-color="#ef6b2a"/>
      <stop offset="1" stop-color="#f0942a"/>
    </linearGradient>
  </defs>
  <path id="Path_90" data-name="Path 90" d="M45.349,17.238a2.509,2.509,0,0,1,.811.608.919.919,0,0,1,.208.541,2.2,2.2,0,0,1-.162.76A8.529,8.529,0,0,1,45.8,20a.249.249,0,0,1-.419.03A4.376,4.376,0,0,0,43.9,18.952a4.758,4.758,0,0,0-2.073-.462,5.512,5.512,0,0,0-.851.076,3.071,3.071,0,0,0-.865.27,1.8,1.8,0,0,0-.673.541,1.446,1.446,0,0,0-.27.892,1.416,1.416,0,0,0,.841,1.357,10.045,10.045,0,0,0,2.106.714,14.26,14.26,0,0,1,1.73.522,5.7,5.7,0,0,1,1.479.811A3.514,3.514,0,0,1,46.335,24.9a4.087,4.087,0,0,1,.384,1.857,3.947,3.947,0,0,1-.446,1.919,4.112,4.112,0,0,1-1.195,1.352,5.269,5.269,0,0,1-1.744.833,7.539,7.539,0,0,1-2.071.27,9.64,9.64,0,0,1-1.892-.165,7.188,7.188,0,0,1-1.4-.4,3.011,3.011,0,0,1-1.043-.611.924.924,0,0,1-.3-.638,1.776,1.776,0,0,1,.208-.811c.138-.27.316-.595.541-.952.138.119.33.27.578.446a5.433,5.433,0,0,0,.892.505,7.115,7.115,0,0,0,1.146.4,5.306,5.306,0,0,0,1.352.162,5.044,5.044,0,0,0,1.038-.105,2.855,2.855,0,0,0,.908-.343,1.865,1.865,0,0,0,.654-.66,2,2,0,0,0,.251-1.046,1.86,1.86,0,0,0-.27-1.033,2.244,2.244,0,0,0-.714-.673,4.4,4.4,0,0,0-1-.435c-.368-.108-.738-.2-1.114-.284a12.037,12.037,0,0,1-1.652-.46,4.955,4.955,0,0,1-1.4-.754,3.611,3.611,0,0,1-.981-1.184,3.7,3.7,0,0,1-.37-1.719,3.514,3.514,0,0,1,.416-1.733A3.6,3.6,0,0,1,38.25,17.4a5.407,5.407,0,0,1,1.622-.741,7.072,7.072,0,0,1,1.892-.251,8.4,8.4,0,0,1,2.073.238,5.852,5.852,0,0,1,1.511.589Z" fill="#3b3c3c"/>
  <path id="Path_91" data-name="Path 91" d="M61.765,37.158H59.238V29.589a6.885,6.885,0,0,1-1.444,1.054,4.6,4.6,0,0,1-2.333.541,6.661,6.661,0,0,1-2.333-.4,4.906,4.906,0,0,1-1.892-1.262,5.923,5.923,0,0,1-1.279-2.23,10.361,10.361,0,0,1-.462-3.3,10.337,10.337,0,0,1,.541-3.628,6.3,6.3,0,0,1,1.427-2.319,5.214,5.214,0,0,1,1.946-1.233,6.38,6.38,0,0,1,2.111-.37,5.236,5.236,0,0,1,1.411.178,5.7,5.7,0,0,1,1.1.414,4.739,4.739,0,0,1,.789.505,3.642,3.642,0,0,1,.476.449,1.522,1.522,0,0,1,.7-1.014,2.046,2.046,0,0,1,1.295-.27,1.73,1.73,0,0,0,.238.016,1,1,0,0,0,.238.027ZM52.131,23.764a10.334,10.334,0,0,0,.195,2.073,4.985,4.985,0,0,0,.641,1.662,3.117,3.117,0,0,0,1.211,1.111,4.022,4.022,0,0,0,1.892.4,3.971,3.971,0,0,0,1.268-.195,4.014,4.014,0,0,0,1-.473,2.552,2.552,0,0,0,.654-.608,1.033,1.033,0,0,0,.241-.592V20.087a4.5,4.5,0,0,0-1.116-.919,4.436,4.436,0,0,0-.941-.4,4.017,4.017,0,0,0-1.165-.165A3.394,3.394,0,0,0,53.072,19.9,6.558,6.558,0,0,0,52.131,23.764Z" fill="#3b3c3c"/>
  <path id="Path_92" data-name="Path 92" d="M71.575,29.011a4.566,4.566,0,0,0,1.473-.224,4.636,4.636,0,0,0,1.143-.541,3.012,3.012,0,0,0,.743-.7,1.181,1.181,0,0,0,.27-.67V16.614h.178a1.146,1.146,0,0,0,.165-.016,1.208,1.208,0,0,1,.192,0,2.311,2.311,0,0,1,1.414.43,1.84,1.84,0,0,1,.578,1.56V30.751H75.2V29.465a5.347,5.347,0,0,1-1.676,1.189,6.271,6.271,0,0,1-2.765.527,5.476,5.476,0,0,1-2.676-.541,3.514,3.514,0,0,1-1.411-1.368,4.56,4.56,0,0,1-.541-1.827c-.057-.665-.089-1.306-.089-1.919V16.606h.184a1.146,1.146,0,0,0,.165-.016,1.208,1.208,0,0,1,.192,0A2.352,2.352,0,0,1,68,17.006a1.788,1.788,0,0,1,.578,1.549v7a8.2,8.2,0,0,0,.165,1.849,1.7,1.7,0,0,0,.668,1.043,2.608,2.608,0,0,0,.968.446A5.312,5.312,0,0,0,71.575,29.011Z" fill="#3b3c3c"/>
  <path id="Path_93" data-name="Path 93" d="M84.864,12.183a1.606,1.606,0,0,1-3.211,0,1.676,1.676,0,0,1,.462-1.219,1.622,1.622,0,0,1,2.29,0,1.676,1.676,0,0,1,.46,1.219ZM82.1,16.614h.178a1.149,1.149,0,0,0,.162-.016,1.263,1.263,0,0,1,.195,0,2.3,2.3,0,0,1,1.411.43,1.833,1.833,0,0,1,.578,1.56v9.472a2.2,2.2,0,0,0,.254,1.219c.168.238.56.357,1.173.357v1.081a4.054,4.054,0,0,1-.727.149,7.451,7.451,0,0,1-.906.059,2.673,2.673,0,0,1-1.325-.27,1.687,1.687,0,0,1-.684-.714,2.7,2.7,0,0,1-.27-.995c-.03-.368-.043-.73-.043-1.081Z" fill="#3b3c3c"/>
  <path id="Path_94" data-name="Path 94" d="M89.83,16.673a2.3,2.3,0,0,1,1.235.341,1.522,1.522,0,0,1,.668,1.146,4.39,4.39,0,0,1,1.257-1.176,3.417,3.417,0,0,1,1.933-.541,4.347,4.347,0,0,1,.7.059,3.087,3.087,0,0,1,.7.192,1.406,1.406,0,0,1,.541.37.922.922,0,0,1,.208.624,2.584,2.584,0,0,1-.238,1.027,5.75,5.75,0,0,1-.476.906,2.974,2.974,0,0,0-.833-.541,2.838,2.838,0,0,0-1.13-.192,2.871,2.871,0,0,0-.965.162,2.784,2.784,0,0,0-.811.446,2.279,2.279,0,0,0-.565.638,1.465,1.465,0,0,0-.208.743v9.856H89.316V16.7h.208a1,1,0,0,0,.178-.016.811.811,0,0,1,.127-.014Z" fill="#3b3c3c"/>
  <path id="Path_95" data-name="Path 95" d="M100.178,16.673a2.3,2.3,0,0,1,1.233.341,1.522,1.522,0,0,1,.67,1.146,4.325,4.325,0,0,1,1.249-1.176,3.411,3.411,0,0,1,1.933-.541,4.339,4.339,0,0,1,.7.046,3.011,3.011,0,0,1,.7.192,1.438,1.438,0,0,1,.541.37.919.919,0,0,1,.205.624,2.585,2.585,0,0,1-.238,1.027,5.533,5.533,0,0,1-.476.906,2.925,2.925,0,0,0-.833-.541,2.838,2.838,0,0,0-1.13-.192,2.892,2.892,0,0,0-.965.162,2.771,2.771,0,0,0-.811.446,2.279,2.279,0,0,0-.565.638,1.441,1.441,0,0,0-.208.743v9.869H99.656V16.7h.208a1,1,0,0,0,.178-.016A.811.811,0,0,1,100.178,16.673Z" fill="#3b3c3c"/>
  <path id="Path_96" data-name="Path 96" d="M122.268,23.688a10.979,10.979,0,0,1-.354,2.8,6.858,6.858,0,0,1-1.141,2.392,5.7,5.7,0,0,1-2.033,1.665,6.7,6.7,0,0,1-3.025.624,6.866,6.866,0,0,1-3.011-.595,5.46,5.46,0,0,1-2-1.606,6.65,6.65,0,0,1-1.127-2.363,11.1,11.1,0,0,1-.365-2.822,9.523,9.523,0,0,1,.416-2.825,6.677,6.677,0,0,1,1.246-2.333,6.1,6.1,0,0,1,2.068-1.6,6.6,6.6,0,0,1,2.89-.592,6.739,6.739,0,0,1,2.974.592,5.547,5.547,0,0,1,1.987,1.592,6.547,6.547,0,0,1,1.125,2.3,10.477,10.477,0,0,1,.354,2.765Zm-2.646,0a10.121,10.121,0,0,0-.165-1.827,5.044,5.044,0,0,0-.578-1.635,3.222,3.222,0,0,0-1.16-1.176,3.747,3.747,0,0,0-1.933-.446,3.693,3.693,0,0,0-1.892.446,3.42,3.42,0,0,0-1.206,1.176,5.136,5.136,0,0,0-.638,1.635,8.691,8.691,0,0,0-.195,1.827,10.859,10.859,0,0,0,.165,1.873,5,5,0,0,0,.608,1.711,3.785,3.785,0,0,0,1.189,1.249,3.39,3.39,0,0,0,1.892.489,3.606,3.606,0,0,0,1.963-.489,3.411,3.411,0,0,0,1.189-1.249,5.407,5.407,0,0,0,.578-1.711,10.858,10.858,0,0,0,.181-1.873Z" fill="#3b3c3c"/>
  <path id="Path_97" data-name="Path 97" d="M28.873,32.722a69.851,69.851,0,0,0-1.311-7.653c-.957-3.811-1.96-4.255-2.365-7.323a7.861,7.861,0,0,1-.084-2.014c.027-.23-.043-.3-.132-.084A6.02,6.02,0,0,0,24.5,18.76c.351,2.584,1.4,3.866,1.668,6.4.224,2.141-1.06,3.487-2.552,3.487A2.486,2.486,0,0,1,21.09,27.14c-.654-1.4-.546-3.536.265-6.055,2.119-6.488,4.944-7.769,5.863-8.58a2.884,2.884,0,0,0,.943-2.974.478.478,0,0,0-.4-.357c-3.106-.56-4.933.27-5.979,1.352a3.752,3.752,0,0,0-.37-.884c-.457-.773-1.257-1.562-1.676-1.262-.473.338-.411,1.965.392,3.355a2.282,2.282,0,0,0,.643.7c-.481,1.589.078,2.649-.27,3.784-.711,2.225-1.657,3.387-2.344,7.653-1.025-2.163,1.26-7.045,1.26-7.045a5.88,5.88,0,0,0-4.9-4.168C8.937,11.559,5.8,17.3,8.861,19.6c1.692,1.27,1.395-2.573,3.706.087.589.681,1.189,1.2,1.527,4.474a4.971,4.971,0,0,0,2.99,4,29.355,29.355,0,0,0-.381,4.6c-.049.965,1.314.792,2.054.322,1.225-.787.614-2.209,4.352-2.273,3.117-.051,3.087,1.435,4.141,2.284a1.622,1.622,0,0,0,.935.365C28.848,33.438,28.924,33.06,28.873,32.722ZM23.391,10.886a.765.765,0,1,1-.543.223.765.765,0,0,1,.543-.223ZM14.6,14.792l.373,3.768a5.444,5.444,0,0,0-5.639-3.068,4.452,4.452,0,0,1,4.352.146l-.465-2c2.541-.573,5.041,2.744,5.041,2.744S15.776,14.057,14.6,14.792Z" fill="url(#linear-gradient)"/>
  <path id="Path_98" data-name="Path 98" d="M21.934,9.667a5,5,0,0,1,.811-.541,2.112,2.112,0,0,0-1.081-1.438c-.232-.105-.384.3-.43.876a4.833,4.833,0,0,1,.465.651A3.311,3.311,0,0,1,21.934,9.667Z" fill="url(#linear-gradient-2)"/>
  <rect id="Rectangle_121" data-name="Rectangle 121" width="129.929" height="45" fill="none"/>
</svg>
